# xmcd
#
# Track frame offsets: 
#        150
#        12318
#        23340
#        37004
#        49830
#        61656
#        73277
#        84307
#        96452
#        108910
#        120593
#        133515
#        145640
#        157894
#        168850
#        179613
#        192404
#        205069
#
# Disc length: 2896 seconds
#
# Revision: 0
# Processed by: cddbd v1.5.2PL0 Copyright (c) Steve Scherf et al.
# Submitted via: ExactAudioCopy v0.99pb5
#
DISCID=ed0b4e12
DTITLE=Hank Williams - Hey Good Lookin' CD2
DYEAR=2005
DGENRE=Country
TTITLE0=Your Cheatin Heart
TTITLE1=(I Heard That) Lonesome Whistle
TTITLE2=Ramblin Man
TTITLE3=I Cant Get You Off Of My Mind
TTITLE4=Long Gone Lonesome Blues
TTITLE5=A Mansion On The Hill
TTITLE6=Crazy Heart
TTITLE7=Lost Highway
TTITLE8=Rootie Tootie
TTITLE9=Settin The Woods On Fire
TTITLE10=On The Banks Of The Old Ponchartrain
TTITLE11=Never Again Will I Knock On Your Door
TTITLE12=My Sweet Love Ain't Around
TTITLE13=Ill Never Get Out Of This World Alive
TTITLE14=Moanin The Blues
TTITLE15=I'm A Long Gone Daddy
TTITLE16=Pan American
TTITLE17=Half As Much
EXTD=
EXTT0=
EXTT1=
EXTT2=
EXTT3=
EXTT4=
EXTT5=
EXTT6=
EXTT7=
EXTT8=
EXTT9=
EXTT10=
EXTT11=
EXTT12=
EXTT13=
EXTT14=
EXTT15=
EXTT16=
EXTT17=
PLAYORDER=
